<?xml version="1.0" encoding="UTF-8" standalone="no"?>
<!DOCTYPE svg PUBLIC "-//W3C//DTD SVG 1.1//EN"
 "http://www.w3.org/Graphics/SVG/1.1/DTD/svg11.dtd">
<!-- Generated by graphviz version 2.47.3 (20210619.1520)
 -->
<!-- Title: dependencies Pages: 1 -->
<svg width="182pt" height="247pt"
 viewBox="0.00 0.00 182.00 246.80" xmlns="http://www.w3.org/2000/svg" xmlns:xlink="http://www.w3.org/1999/xlink">
<g id="graph0" class="graph" transform="scale(1 1) rotate(0) translate(4 242.8)">
<title>dependencies</title>
<polygon fill="white" stroke="transparent" points="-4,4 -4,-242.8 178,-242.8 178,4 -4,4"/>
<text text-anchor="middle" x="87" y="-8.2" font-family="sans-serif" font-size="14.00">dependencies</text>
<g id="clust1" class="cluster">
<title>cluster_WidgetModule</title>
<polygon fill="none" stroke="black" stroke-dasharray="1,5" points="8,-32.8 8,-230.8 166,-230.8 166,-32.8 8,-32.8"/>
</g>
<g id="clust5" class="cluster">
<title>cluster_WidgetModule_exports</title>
<polygon fill="none" stroke="black" points="16,-170.8 16,-222.8 158,-222.8 158,-170.8 16,-170.8"/>
</g>
<g id="clust2" class="cluster">
<title>cluster_WidgetModule_declarations</title>
<polygon fill="none" stroke="black" points="18,-40.8 18,-92.8 156,-92.8 156,-40.8 18,-40.8"/>
</g>
<!-- WidgetComponent -->
<g id="node1" class="node">
<title>WidgetComponent</title>
<polygon fill="#ffffb3" stroke="black" points="148.04,-84.8 25.96,-84.8 25.96,-48.8 148.04,-48.8 148.04,-84.8"/>
<text text-anchor="middle" x="87" y="-62.6" font-family="Times,serif" font-size="14.00">WidgetComponent</text>
</g>
<!-- WidgetModule -->
<g id="node2" class="node">
<title>WidgetModule</title>
<polygon fill="#8dd3c7" stroke="black" points="137.26,-149.8 134.26,-153.8 113.26,-153.8 110.26,-149.8 36.74,-149.8 36.74,-113.8 137.26,-113.8 137.26,-149.8"/>
<text text-anchor="middle" x="87" y="-127.6" font-family="Times,serif" font-size="14.00">WidgetModule</text>
</g>
<!-- WidgetComponent&#45;&gt;WidgetModule -->
<g id="edge1" class="edge">
<title>WidgetComponent&#45;&gt;WidgetModule</title>
<path fill="none" stroke="black" d="M87,-84.91C87,-84.91 87,-103.79 87,-103.79"/>
<polygon fill="black" stroke="black" points="83.5,-103.79 87,-113.79 90.5,-103.79 83.5,-103.79"/>
</g>
<!-- WidgetComponent  -->
<g id="node3" class="node">
<title>WidgetComponent </title>
<polygon fill="#fb8072" stroke="black" points="150.04,-214.8 23.96,-214.8 23.96,-178.8 150.04,-178.8 150.04,-214.8"/>
<text text-anchor="middle" x="87" y="-192.6" font-family="Times,serif" font-size="14.00">WidgetComponent </text>
</g>
<!-- WidgetModule&#45;&gt;WidgetComponent  -->
<g id="edge2" class="edge">
<title>WidgetModule&#45;&gt;WidgetComponent </title>
<path fill="none" stroke="black" stroke-dasharray="5,2" d="M87,-149.91C87,-149.91 87,-168.79 87,-168.79"/>
<polygon fill="black" stroke="black" points="83.5,-168.79 87,-178.79 90.5,-168.79 83.5,-168.79"/>
</g>
</g>
</svg>
